<?xml version="1.0" encoding="utf-8"?>
<!-- Generator: Adobe Illustrator 25.0.0, SVG Export Plug-In . SVG Version: 6.00 Build 0)  -->
<svg version="1.1" id="Capa_1" xmlns="http://www.w3.org/2000/svg" xmlns:xlink="http://www.w3.org/1999/xlink" x="0px" y="0px"
	 viewBox="0 0 200 200" style="enable-background:new 0 0 200 200;" xml:space="preserve">
<style type="text/css">
	.st0{fill:#FEB32F;}
	.st1{fill:#AF5B35;}
	.st2{fill:#FEC638;}
	.st3{fill:#C66E4D;}
</style>
<g>
	<path class="st0" d="M102.6,25.9c10.8,0,21.6,0,32.4,0c15.6,0,31.1,0,46.7,0c5.7,0,10,2.4,12.4,7.7c0.4,0.8,0.6,1.7,0.9,2.6
		c0,6.2,0,12.4,0,18.5c-0.2-1.8-1.4-1.9-3-1.9c-15.5,0-30.9,0-46.4,0c-1.5,0-2.5,0.4-3.6,1.5c-5.3,5.4-10.7,10.7-16,16
		c-0.7,0.8-1.5,1.1-2.6,1.1c-6.4,0-12.9-0.1-19.3,0c-1.3,0-1.7-0.4-1.7-1.7c0.1-5.9,0-11.9,0-17.8c0-8.6,0-17.2-0.1-25.8
		C102.6,26.1,102.6,26,102.6,25.9z"/>
	<path class="st0" d="M195,163.8c-0.9,2.7-2,5.3-4.2,7.2c-2.4,2.1-5.2,3.1-8.3,3.1c-26.6,0-53.2,0-79.8,0c0-0.1,0-0.2,0-0.3
		c0-0.7,0.1-1.5,0.1-2.2c0-13.7,0-27.3,0-41c0-1.7,0.4-2.1,2.1-2c6.2,0.1,12.5,0.1,18.7,0c1.2,0,2.1,0.4,2.9,1.2
		c5.3,5.3,10.6,10.6,15.8,15.9c1,1.1,2.1,1.5,3.6,1.5c15.5,0,30.9,0,46.4,0c1.5,0,2.7-0.1,3-1.9C195,151.5,195,157.6,195,163.8z"/>
	<path class="st0" d="M195,58.1c0,13.1,0,26.2,0,39.3c-21.5,0-43,0-64.5,0c-1.3,0-2-0.2-2-1.8c0.1-6.5,0.1-13,0-19.5
		c0-0.9,0.3-1.5,0.9-2.1c5.1-5.1,10.1-10.1,15.2-15.2c0.6-0.6,1.3-0.9,2.1-0.9C162.9,58.1,178.9,58.1,195,58.1z"/>
	<path class="st0" d="M195,102.6c0,13.1,0,26.2,0,39.3c-16.1,0-32.1,0-48.2,0.1c-1.1,0-1.7-0.5-2.4-1.1c-4.9-4.9-9.8-9.8-14.7-14.7
		c-0.9-0.9-1.2-1.7-1.2-2.9c0-6.2,0.1-12.4,0-18.5c0-1.7,0.4-2.2,2.1-2.2C152.1,102.6,173.5,102.6,195,102.6z"/>
	<path class="st1" d="M195,102.6c-21.4,0-42.9,0-64.3,0c-1.7,0-2.2,0.5-2.1,2.2c0.1,6.2,0.1,12.4,0,18.5c0,1.2,0.3,2.1,1.2,2.9
		c4.9,4.9,9.8,9.8,14.7,14.7c0.7,0.7,1.3,1.1,2.4,1.1c16.1,0,32.1,0,48.2-0.1c0,1.1,0,2.2,0,3.3c-0.2,1.8-1.4,1.9-3,1.9
		c-15.5,0-30.9,0-46.4,0c-1.5,0-2.5-0.4-3.6-1.5c-5.2-5.3-10.6-10.6-15.8-15.9c-0.8-0.8-1.7-1.3-2.9-1.2c-6.2,0.1-12.5,0.1-18.7,0
		c-1.6,0-2.1,0.4-2.1,2c0.1,13.7,0,27.3,0,41c0,0.7,0,1.5-0.1,2.2c-2.5,0.1-2.5,0.1-2.5-2.4c0-16,0-31.9,0-47.9
		c6.9,0,13.8-0.1,20.8-0.1c2.9,0,2.6,0.3,2.6-2.5c0-9,0-18.1,0-27.1c0-5.1,0-10.3,0-15.4c0-1.3-0.3-2-1.7-1.8c-0.6,0.1-1.2,0-1.9,0
		c-6.6,0-13.2-0.1-19.8-0.1c0-15.9,0-31.9,0-47.8c0-2.5,0-2.5,2.5-2.4c0,8.6,0.1,17.2,0.1,25.8c0,5.9,0,11.9,0,17.8
		c0,1.3,0.4,1.7,1.7,1.7c6.4-0.1,12.9-0.1,19.3,0c1.1,0,1.8-0.4,2.6-1.1c5.3-5.4,10.7-10.6,16-16c1-1.1,2.1-1.5,3.6-1.5
		c15.5,0,30.9,0,46.4,0c1.5,0,2.7,0.1,3,1.9c0,1.1,0,2.2,0,3.3c-16.1,0-32.1,0-48.2,0c-0.9,0-1.5,0.3-2.1,0.9
		c-5,5.1-10.1,10.1-15.2,15.2c-0.6,0.6-0.9,1.2-0.9,2.1c0,6.5,0.1,13,0,19.5c0,1.6,0.6,1.8,2,1.8c21.5,0,43,0,64.5,0
		C195,99.1,195,100.9,195,102.6z"/>
	<path class="st2" d="M5.1,55.1c0-5.8-0.2-11.6,0-17.4c0.2-6.6,5.7-11.6,12.5-11.6c16,0,32,0,48,0c10.6,0,21.2,0,31.9,0
		c0,14.5,0,28.9,0,43.4c0,1.6-0.5,2-2,1.9c-6.2-0.1-12.4-0.1-18.5,0c-1.1,0-2-0.3-2.8-1.1C69,65,63.7,59.8,58.5,54.5
		c-1.2-1.2-2.4-1.7-4-1.7c-15.4,0.1-30.8,0.1-46.2,0C6.5,52.8,5.2,53,5.1,55.1z"/>
	<path class="st2" d="M97.5,173.9c-11.2,0-22.5,0-33.7,0c-15.2,0-30.4,0-45.6,0c-8,0-13.1-5.1-13.1-13.1c0-5.3,0-10.6,0.1-15.9
		c0.1,2.2,1.4,2.3,3.2,2.3c15.5-0.1,30.9-0.1,46.4,0c1.6,0,2.7-0.5,3.7-1.6c5.2-5.3,10.6-10.6,15.8-15.9c0.8-0.8,1.6-1.2,2.8-1.1
		c6.1,0.1,12.2,0.1,18.4,0c1.7,0,2.2,0.4,2.2,2.1C97.4,145.1,97.4,159.5,97.5,173.9z"/>
	<path class="st2" d="M5.1,97.4c0-13.2,0-26.4,0-39.7c15.8,0,31.5,0,47.3,0c1.6,0,2.7,0.5,3.7,1.6c4.7,4.8,9.4,9.5,14.2,14.2
		c0.8,0.8,1.2,1.6,1.1,2.8c0,6.4-0.1,12.7,0,19.1c0,1.8-0.6,2.1-2.2,2.1C47.9,97.4,26.5,97.4,5.1,97.4z"/>
	<path class="st2" d="M5.1,142c0-13.2,0-26.3,0-39.5c0.4,0,0.7,0,1.1,0c21.1,0,42.1,0,63.2,0c1.6,0,2.1,0.4,2.1,2.1
		c-0.1,6.3-0.1,12.6,0,18.9c0,1.1-0.4,2-1.2,2.8c-4.5,4.6-9.3,8.9-13.5,13.8c-1.3,1.5-2.8,2-4.8,2C36.4,142,20.7,142,5.1,142z"/>
	<path class="st3" d="M5.1,142c15.6,0,31.3-0.1,46.9,0c2,0,3.5-0.5,4.8-2c4.2-4.9,9-9.2,13.5-13.8c0.8-0.8,1.2-1.6,1.2-2.8
		c-0.1-6.3-0.1-12.6,0-18.9c0-1.6-0.4-2.1-2.1-2.1c-21.1,0.1-42.1,0-63.2,0c-0.4,0-0.7,0-1.1,0c0-1.7,0-3.4,0-5.1
		c21.4,0,42.8,0,64.2,0c1.6,0,2.2-0.3,2.2-2.1c-0.1-6.4-0.1-12.7,0-19.1c0-1.1-0.3-2-1.1-2.8c-4.8-4.7-9.5-9.4-14.2-14.2
		c-1.1-1.1-2.2-1.6-3.7-1.6c-15.8,0-31.5,0-47.3,0c0-0.9,0-1.8,0-2.6c0.1-2.1,1.4-2.3,3.2-2.3c15.4,0.1,30.8,0.1,46.2,0
		c1.7,0,2.9,0.5,4,1.7C63.7,59.8,69,65,74.2,70.3c0.8,0.8,1.6,1.2,2.8,1.1c6.2-0.1,12.4-0.1,18.5,0c1.5,0,2-0.4,2-1.9
		c-0.1-14.5,0-28.9,0-43.4c1.7-0.3,3.4-0.4,5.2-0.2c0,0.1,0,0.2-0.1,0.3c-2.5-0.1-2.5-0.1-2.5,2.4c0,15.9,0,31.9,0,47.8l0,0.2
		c-7.3,0-14.7,0-22-0.1c-1,0-1.4,0.4-1.4,1.4c0.1,1.8,0,3.7,0,5.6c0,12.7,0,25.3,0,38c0,1-0.2,2,1.4,2c7.3-0.1,14.7-0.1,22-0.1
		l0,0.1c0,16,0,31.9,0,47.9c0,2.5,0,2.5,2.5,2.4c0,0.1,0,0.2,0,0.3c-1.7,0.2-3.4,0.1-5.1-0.2c0-14.4,0-28.8,0-43.2
		c0-1.7-0.5-2.2-2.2-2.1c-6.1,0.1-12.2,0.1-18.4,0c-1.1,0-2,0.3-2.8,1.1c-5.3,5.3-10.6,10.6-15.8,15.9c-1.1,1.1-2.2,1.6-3.7,1.6
		c-15.5-0.1-30.9-0.1-46.4,0c-1.8,0-3.1-0.1-3.2-2.3C5.1,143.9,5.1,143,5.1,142z"/>
	<path class="st0" d="M100,76.5c6.6,0,13.2,0.1,19.8,0.1c0.6,0,1.2,0.1,1.9,0c1.5-0.2,1.7,0.5,1.7,1.8c-0.1,5.1,0,10.3,0,15.4
		c0,9,0,18.1,0,27.1c0,2.8,0.3,2.5-2.6,2.5c-6.9,0-13.8,0.1-20.8,0.1c0,0,0-0.1,0-0.1c0-15.6,0-31.1,0-46.7
		C100,76.6,100,76.5,100,76.5z"/>
	<path class="st2" d="M100,76.6c0,15.6,0,31.1,0,46.7c-7.3,0-14.7,0-22,0.1c-1.6,0-1.4-1-1.4-2c0-12.7,0-25.3,0-38
		c0-1.9,0-3.7,0-5.6c0-1,0.4-1.4,1.4-1.4C85.3,76.6,92.7,76.6,100,76.6z"/>
</g>
</svg>
