<?xml version="1.0" encoding="utf-8"?>
<!-- Generator: Adobe Illustrator 25.0.0, SVG Export Plug-In . SVG Version: 6.00 Build 0)  -->
<svg version="1.1" id="Capa_1" xmlns="http://www.w3.org/2000/svg" xmlns:xlink="http://www.w3.org/1999/xlink" x="0px" y="0px"
	 viewBox="0 0 1000 1000" style="enable-background:new 0 0 1000 1000;" xml:space="preserve">
<style type="text/css">
	.st0{fill:#0D6EFD;}
	.st1{opacity:0.98;fill:#0D6EFD;}
	.st2{opacity:0.98;}
</style>
<g>
	<path class="st0" d="M847,183.3c-3-43.2-38.2-82-81-89.2c-3.7-0.6-7.5-1.6-11.2-1.6c-88-0.1-176.1,0-264.1,0.1
		c-120.8-0.1-241.6-1-362.3,0.3c-37.6,0.4-65.4,21.2-83.1,54.6c-14.7,27.6-9.8,57.4-10.4,87.8c2-1.3,2.9-1.7,3.6-2.3
		c28.4-28.9,63-41.8,103.4-41.3c54.5,0.6,109.1,0.2,163.6,0.1c61.8-0.1,123.5-0.2,185.3-0.3c0.7,0.1,1.4,0.3,2,0.3
		c115.7,0,231.3,0,347,0.2C846.9,191.9,847.4,189,847,183.3z"/>
	<path class="st1" d="M866.9,647.7c-27.6,0-55.2,0.1-82.9,0c-47.2-0.3-84-36.8-84-83c0.1-46.1,37-82.5,84.3-82.7
		c57.3-0.2,114.7,0.1,172-0.2c7.2,0,9.2,1.9,9.2,9.1c-0.3,49-0.3,98.1,0,147.1c0,7.5-1.4,10-9.5,9.9
		C926.3,647.4,896.6,647.7,866.9,647.7z M855.7,565c0-31.7-24.8-56.4-56.5-56.3c-31,0.1-55.8,25-55.8,56c0,31.8,24.6,56.3,56.5,56.3
		C830.9,620.9,855.7,596,855.7,565z"/>
	<g class="st2">
		<path class="st0" d="M205.9,518.1c16.8,0,19.9-2.2,25.3-18.4c8.1-24.4,16.3-48.8,24-73.4c1.9-5.9,4.6-7.9,10.9-7.8
			c41.4,0.3,82.9,0.1,124.3,0.2c3.5,0,6.8-0.8,9.6,3.7c19.1,30.2,39.1,36.2,71.7,22.4c19.5-15.1,27.9-34.1,20.6-58.6
			c-3.4-11.3-11.2-19.4-20.3-26.5c-30.6-14.7-53.7-7.9-71.8,21.6c-3,5-6.7,3.9-10.5,3.9c-45.9,0.1-91.9,0.1-137.8,0.1
			c-15,0-18.6,2.6-23.3,16.7c-8.5,25.2-17,50.3-25.1,75.6c-1.8,5.6-4.4,7.4-10.2,7.3c-51.5-0.2-102.9-0.2-154.4,0
			c-0.9,0-1.7,0-2.5-0.1v34.2c3.5-1.2,9.1-1.2,18.1-1.2C105,518.1,155.5,518.1,205.9,518.1z"/>
		<path class="st0" d="M337.8,584.2c7.5,0,11.4,2,15.1,8.7c11,20,34.3,28.9,56,22.8c22-6.2,36.6-25.7,36.4-48.4
			c-0.2-22.5-15.6-42-37.5-47.5c-22.1-5.5-44.7,3.9-55.4,24c-3.1,5.7-6.3,7.5-12.6,7.5c-99.8-0.2-199.6-0.2-299.4,0.1
			c-1.4,0-2.6,0-3.7-0.2v34.1c3.3-1,8.3-1,16.3-1C147.8,584.4,242.8,584.5,337.8,584.2z"/>
		<path class="st0" d="M190.4,650.5c8.7-0.1,11.8,2.9,14.2,10.7c7.4,24,15.7,47.8,23.6,71.7c5,15,8.3,17.4,23.9,17.4
			c45.6,0,91.2,0,136.8,0.1c3.7,0,7.6-1.6,10.8,3.3c20.2,30.7,38.1,36.3,71.6,23.1c19.6-15.1,28.3-34.1,21-58.7
			c-3.4-11.4-11.2-19.5-20.3-26.6c-31-14.6-53.6-8-71.8,21.6c-2.4,3.9-5,4-8.4,4c-42.1,0-84.3-0.1-126.4,0.2
			c-6.1,0.1-8.3-2.4-10-7.7c-8.2-25.2-16.7-50.4-25.1-75.5c-4.6-13.6-8.4-16.3-22.5-16.3c-55.6,0-111.2-0.2-166.8,0.2
			c-1.7,0-3.2-0.1-4.4-0.3v33.2c1.3-0.2,2.9-0.3,4.7-0.3C91,650.9,140.7,651,190.4,650.5z"/>
	</g>
	<g>
		<g>
			<path class="st1" d="M955.4,677.9c-21.2-0.4-43-0.3-64.1-0.3c-16.7,0-33.5,0-50.2,0.1c-5.6,0-11.2,0-16.9,0
				C790,749.3,716.8,798.7,632.2,798.7H491.9c-0.7,0.6-1.5,1.2-2.3,1.8l-3.3,2.6l-3.9,1.6c-10.4,4.1-24.6,8.8-40,8.8
				c-6.8,0-13.9-0.9-21-3.2c-8.2-2.6-15.3-6.7-21.5-11.5H201c-24.4,0-44.1-19.8-44.1-44.1v-73.8c-36.3,0.2-74.5,0.1-115.9-0.2
				c-0.1,0-0.2,0-0.3,0l-4.2,0.7v125c0,56.1,45.5,101.6,101.6,101.6h725.7c56.1,0,101.6-45.5,101.6-101.6v-129
				c-2.8,0.5-5.8,0.8-9,0.8C956.1,677.9,955.8,677.9,955.4,677.9z"/>
			<path class="st1" d="M863.9,228H138.1C82,228,36.5,273.5,36.5,329.6v125.3l2.5,0.2c37.5-0.2,76.3-0.3,117.9-0.2v-73.8
				c0-24.4,19.8-44.1,44.1-44.1h198.8c7.1-5.4,14.8-9.3,23-11.8c19-5.7,39.9-3.2,62.1,7.5l2.9,1.4l2.5,1.9c0.4,0.3,0.8,0.7,1.3,1
				h140.6c82.2,0,153.6,46.6,189,114.9c13.3,0,26.6,0,39.7,0c31.2,0,63.5,0,95.2-0.1c1.8,0,5.2,0,9.3,0.7V329.6
				C965.5,273.5,920,228,863.9,228z"/>
		</g>
	</g>
</g>
</svg>
