<?xml version="1.0" encoding="utf-8"?>
<!-- Generator: Adobe Illustrator 25.0.0, SVG Export Plug-In . SVG Version: 6.00 Build 0)  -->
<svg version="1.1" id="Capa_1" xmlns="http://www.w3.org/2000/svg" xmlns:xlink="http://www.w3.org/1999/xlink" x="0px" y="0px"
	 viewBox="0 0 1000 1000" enable-background="new 0 0 1000 1000" xml:space="preserve">
<g>
	<path fill="#FFFFFF" d="M964.51,694.22c0.11-9-1.64-12.16-11.57-12.08c-58.35,0.5-116.71,0.89-175.05-0.05
		c-60.6-0.97-110.61-51.98-111.95-112.47c-1.49-66.95,49.88-119.08,117.97-119.34c56.97-0.22,113.94-0.21,170.91,0.13
		c7.81,0.05,9.77-2.02,9.68-9.74c-0.42-36.6-0.15-73.2-0.2-109.8c-0.07-62.11-42.57-104.45-104.92-104.47
		c-100.82-0.04-201.64-0.04-302.47-0.01c-25.89,0.01-51.78,0.22-77.67,0.34c-116.37-0.07-232.75-0.86-349.11,0.1
		c-51.73,0.43-93.84,45.46-94.31,97.97C35.35,380.4,35.83,436,35.57,491.6c-0.03,6.72,1.76,8.69,8.58,8.65
		c51.45-0.29,102.91-0.27,154.36-0.05c5.84,0.02,8.43-1.73,10.23-7.35c8.08-25.28,16.63-50.4,25.08-75.56
		c4.75-14.14,8.36-16.7,23.32-16.72c45.93-0.03,91.86,0,137.79-0.1c3.8-0.01,7.46,1.05,10.51-3.94
		c18.05-29.56,41.18-36.29,71.76-21.62c9.09,7.03,16.89,15.16,20.29,26.45c7.36,24.44-1.08,43.48-20.57,58.56
		c-32.62,13.79-52.63,7.74-71.7-22.42c-2.83-4.47-6.1-3.69-9.63-3.7c-41.44-0.08-82.89,0.08-124.33-0.22
		c-6.27-0.05-9.04,1.95-10.91,7.85c-7.74,24.54-15.92,48.95-24.01,73.38c-5.34,16.15-8.47,18.39-25.27,18.39
		c-50.42,0-100.84-0.02-151.27-0.03c-24.33,0-23.92,0-24.33,23.94c-0.14,8.14,2.53,9.48,9.94,9.47
		c99.81-0.26,199.62-0.27,299.42-0.07c6.35,0.01,9.56-1.81,12.62-7.53c10.76-20.16,33.3-29.57,55.41-24.03
		c21.88,5.48,37.28,24.98,37.49,47.48c0.21,22.74-14.38,42.16-36.36,48.41c-21.67,6.16-44.94-2.81-55.95-22.77
		c-3.72-6.75-7.61-8.73-15.09-8.71c-94.97,0.27-189.95,0.15-284.92,0.13c-22.4,0-21.98,0.01-22.55,22.6
		c-0.21,8.5,1.88,10.94,10.66,10.86c55.6-0.45,111.2-0.26,166.81-0.24c14.14,0,17.98,2.79,22.54,16.35
		c8.46,25.15,16.95,50.3,25.11,75.55c1.71,5.31,3.84,7.77,9.97,7.72c42.13-0.3,84.27-0.17,126.4-0.18c3.44,0,6.04-0.14,8.42-4
		c18.22-29.6,40.83-36.23,71.79-21.62c9.14,7.07,16.95,15.25,20.34,26.61c7.35,24.62-1.4,43.64-20.97,58.72
		c-33.44,13.22-51.38,7.63-71.56-23.06c-3.23-4.92-7.14-3.32-10.85-3.33c-45.59-0.16-91.18-0.1-136.77-0.13
		c-15.56-0.01-18.84-2.38-23.86-17.4c-7.98-23.86-16.19-47.66-23.63-71.7c-2.4-7.76-5.56-10.75-14.25-10.66
		c-49.73,0.51-99.47,0.44-149.2,0.02c-8.37-0.07-11.07,1.66-10.96,10.58c0.51,42.13,0.18,84.27,0.24,126.41
		c0.09,60.71,42.95,103.55,103.69,103.63c48.7,0.06,97.4,0.04,146.1-0.02c65.27-0.08,130.54-0.22,195.81-0.33
		c1.37,0.12,2.75,0.33,4.12,0.33c126.72,0.01,253.44,0.17,380.16-0.09c53.73-0.11,98.85-44.56,98.72-100.05
		C964.24,768.8,964.04,731.5,964.51,694.22z"/>
	<path fill="#FFFFFF" d="M848.06,184.8c-3-43.19-38.15-82-81.02-89.17c-3.74-0.62-7.49-1.61-11.24-1.61
		c-88.04-0.05-176.08,0.02-264.12,0.07c-120.78-0.07-241.57-0.96-362.34,0.28c-37.56,0.39-65.39,21.19-83.11,54.57
		c-14.68,27.65-9.75,57.45-10.44,87.78c2.02-1.3,2.93-1.68,3.56-2.33c28.43-28.94,63-41.76,103.44-41.3
		c54.52,0.63,109.05,0.18,163.58,0.12c61.77-0.07,123.54-0.22,185.31-0.33c0.68,0.1,1.37,0.28,2.05,0.28
		c115.67,0.03,231.34-0.03,347.02,0.22C847.89,193.39,848.46,190.54,848.06,184.8z"/>
	<path fill="#FFFFFF" d="M865.88,649.21c-27.63,0-55.25,0.14-82.88-0.03c-47.19-0.29-84.03-36.82-83.96-83.04
		c0.06-46.14,36.98-82.54,84.29-82.68c57.32-0.18,114.65,0.09,171.97-0.2c7.25-0.04,9.23,1.86,9.19,9.15
		c-0.33,49.03-0.33,98.07,0,147.11c0.05,7.46-1.44,10.05-9.52,9.9C925.28,648.89,895.58,649.21,865.88,649.21z M854.68,566.46
		c0-31.69-24.8-56.42-56.5-56.32c-31.03,0.09-55.82,24.97-55.78,55.99c0.03,31.83,24.64,56.35,56.48,56.3
		C829.92,622.37,854.68,597.54,854.68,566.46z"/>
</g>
</svg>
