<?xml version="1.0" encoding="utf-8"?>
<!-- Generator: Adobe Illustrator 25.0.0, SVG Export Plug-In . SVG Version: 6.00 Build 0)  -->
<svg version="1.1" id="Capa_1" xmlns="http://www.w3.org/2000/svg" xmlns:xlink="http://www.w3.org/1999/xlink" x="0px" y="0px"
	 viewBox="0 0 200 200" style="enable-background:new 0 0 200 200;" xml:space="preserve">
<style type="text/css">
	.st0{fill:#64A8F9;}
</style>
<g>
	<path class="st0" d="M36,36c11.6-1.1,31.2-1.1,43,9.1c1.6,1.4,4.2,0.9,5-1.2l2.2-5.9c1-2.8,5-2.6,5.8,0.2l13.8,45.7
		c0.7,2.2-1.2,4.3-3.4,3.9l-41.6-6.9c-2.7-0.4-3.5-3.9-1.3-5.5l5.9-4.5c1.3-1,1.6-2.8,0.7-4.1C63.1,62.5,55,53,34.8,41.7
		C32.2,40.3,33,36.3,36,36z"/>
	<g>
		<path class="st0" d="M105.7,64.5c11.9,0,23.7,0,35.6,0c4.2,0,7.3-2.9,7.3-6.8c0-3.9-3.1-6.8-7.3-6.8c-13.2,0-26.5,0-39.7,0
			L105.7,64.5z"/>
		<path class="st0" d="M144.1,96.4c7.5,0,14.9,0,22.6,0c0-3.6,0-7,0-10.3c0-7.7-4.7-12.4-12.4-12.4c-15.3,0-30.7,0-46,0l2.6,8.7
			c0.9,2.9,0.2,5.9-1.8,8.1c-1.6,1.9-4,2.9-6.4,2.9c-0.5,0-1,0-1.4-0.1l-41.6-6.9c-3.4-0.6-6.1-3.1-6.9-6.4c-0.7-2.7,0-5.5,1.7-7.5
			c-0.8-0.8-1.4-1.8-1.5-3C53,67.1,54.7,65,57,64.6c0,0,0,0,0.1,0C54.5,62,51,58.9,46,55.2c-3.9,3.3-6.4,8.3-6.4,14.1
			c0,25.6,0,51.2,0,76.8c0,1.4,0.1,2.8,0.5,4.2c1.9,8.5,9.2,14.2,18,14.2c32.3,0,64.5,0,96.8,0c0.3,0,0.7,0,1,0
			c5.2-0.2,10-4,10.6-9.1c0.5-4.4,0.1-8.9,0.1-13.6c-0.4,0-0.9,0-1.4,0c-7.2,0-14.5,0.1-21.7,0c-13.9-0.2-24.5-13.6-21.6-27.2
			C124.1,103.8,133.2,96.4,144.1,96.4z"/>
	</g>
	<path class="st0" d="M166.6,132.7c-7.6,0-15.2,0-22.8,0c-0.7,0-1.4-0.1-2.1-0.2c-7-1.2-11.8-7.4-11.3-14.4
		c0.5-6.9,6.3-12.5,13.2-12.6c7.6-0.1,15.2,0,23,0C166.6,114.5,166.6,123.5,166.6,132.7z"/>
</g>
</svg>
