<?xml version="1.0" encoding="utf-8"?>
<!-- Generator: Adobe Illustrator 25.0.0, SVG Export Plug-In . SVG Version: 6.00 Build 0)  -->
<svg version="1.1" id="Capa_1" xmlns="http://www.w3.org/2000/svg" xmlns:xlink="http://www.w3.org/1999/xlink" x="0px" y="0px"
	 viewBox="0 0 1024 768" style="enable-background:new 0 0 1024 768;" xml:space="preserve">
<style type="text/css">
	.st0{fill:#E3F0FC;}
</style>
<path class="st0" d="M135.7,635c0-10.9-8.8-19.7-19.7-19.7s-19.7,8.8-19.7,19.7c0,8.4,5.3,15.5,12.7,18.3V768h14V653.3
	C130.4,650.5,135.7,643.4,135.7,635z"/>
<path class="st0" d="M182.7,489c0-10.9-8.8-19.7-19.7-19.7s-19.7,8.8-19.7,19.7c0,8.4,5.3,15.5,12.7,18.3V768h14V507.3
	C177.4,504.5,182.7,497.4,182.7,489z"/>
<path class="st0" d="M207.9,386.2v-28.3c8.1-2.4,14-9.9,14-18.8c0-10.9-8.8-19.7-19.7-19.7s-19.7,8.8-19.7,19.7
	c0,7.8,4.6,14.6,11.3,17.8V392l38.3,38.3v78.7L187,554.1V768h14V559.9l45.2-45.2v-90.3L207.9,386.2z"/>
<path class="st0" d="M52.7,32c0-10.9-8.8-19.7-19.7-19.7S13.3,21.1,13.3,32c0,8.4,5.3,15.5,12.7,18.3V768h14V50.3
	C47.4,47.5,52.7,40.4,52.7,32z"/>
<path class="st0" d="M135.7,309.7c0-10.9-8.8-19.7-19.7-19.7s-19.7,8.8-19.7,19.7c0,8.4,5.3,15.5,12.7,18.3v93.7l-29-25V133
	c7.4-2.8,12.7-10,12.7-18.3C92.7,103.8,83.9,95,73,95s-19.7,8.8-19.7,19.7c0,8.4,5.3,15.5,12.7,18.3v270.2l43,37v86.9l-38,38V768h14
	V570.9l38-38V328C130.4,325.2,135.7,318.1,135.7,309.7z"/>
<path class="st0" d="M250.7,595.7c0-10.9-8.8-19.7-19.7-19.7s-19.7,8.8-19.7,19.7c0,8.4,5.3,15.5,12.7,18.3v154h14V614
	C245.4,611.2,250.7,604.1,250.7,595.7z"/>
<path class="st0" d="M389.7,458c0-10.9-8.8-19.7-19.7-19.7s-19.7,8.8-19.7,19.7c0,9.1,6.2,16.7,14.6,19v110.7L286,666.6v-87.7
	l31.5-31.5V429.3c7.4-2.8,12.7-10,12.7-18.3c0-10.9-8.8-19.7-19.7-19.7s-19.7,8.8-19.7,19.7c0,8.4,5.3,15.5,12.7,18.3v112.3
	L272,573.1V768h14v-81.6l92.9-92.9v-118C385.3,472.3,389.7,465.6,389.7,458z"/>
<path class="st0" d="M356.7,707c0-10.9-8.8-19.7-19.7-19.7s-19.7,8.8-19.7,19.7c0,8.4,5.3,15.5,12.7,18.3V768h14v-42.7
	C351.4,722.5,356.7,715.4,356.7,707z"/>
<path class="st0" d="M433,649c0-10.9-8.8-19.7-19.7-19.7c-10.9,0-19.7,8.8-19.7,19.7c0,8.4,5.3,15.5,12.7,18.3V768h14V667.3
	C427.8,664.5,433,657.4,433,649z"/>
<path class="st0" d="M531.7,464c0-10.9-8.8-19.7-19.7-19.7s-19.7,8.8-19.7,19.7c0,8.3,5.2,15.4,12.5,18.3v104.1l-27.7,27.7
	l-29.6-29.6v-51.2c7.4-2.8,12.7-10,12.7-18.3c0-10.9-8.8-19.7-19.7-19.7c-10.9,0-19.7,8.8-19.7,19.7c0,8.4,5.3,15.5,12.7,18.3v57
	l36.6,36.6V768h14V626.9l34.7-34.7V482.4C526.3,479.6,531.7,472.5,531.7,464z"/>
<path class="st0" d="M588,599c0-10.9-8.8-19.7-19.7-19.7s-19.7,8.8-19.7,19.7c0,8.4,5.3,15.5,12.7,18.3V768h14V617.3
	C582.8,614.5,588,607.4,588,599z"/>
<path class="st0" d="M648.7,553.5c0-10.9-8.8-19.7-19.7-19.7s-19.7,8.8-19.7,19.7c0,8.4,5.3,15.5,12.7,18.3V768h14V571.9
	C643.4,569,648.7,561.9,648.7,553.5z"/>
<path class="st0" d="M716.4,546.7c0-10.9-8.8-19.7-19.7-19.7s-19.7,8.8-19.7,19.7c0,8.4,5.3,15.5,12.7,18.3v203h14V565
	C711.1,562.2,716.4,555.1,716.4,546.7z"/>
<path class="st0" d="M820.2,589.5c0-10.9-8.8-19.7-19.7-19.7s-19.7,8.8-19.7,19.7c0,8.1,4.9,15,11.9,18v46.8L754,693.1V768h14v-69.1
	l38.8-38.8v-52C814.6,605.5,820.2,598.2,820.2,589.5z"/>
<path class="st0" d="M883.7,649c-10.9,0-19.7,8.8-19.7,19.7c0,2.6,0.5,5,1.4,7.2l-52.2,52.2V768h14v-34.1l47.7-47.7
	c2.6,1.3,5.6,2.1,8.8,2.1c10.9,0,19.7-8.8,19.7-19.7S894.5,649,883.7,649z"/>
</svg>
