<?xml version="1.0" encoding="utf-8"?>
<!-- Generator: Adobe Illustrator 25.0.0, SVG Export Plug-In . SVG Version: 6.00 Build 0)  -->
<svg version="1.1" id="Capa_1" xmlns="http://www.w3.org/2000/svg" xmlns:xlink="http://www.w3.org/1999/xlink" x="0px" y="0px"
	 viewBox="0 0 1024 768" style="enable-background:new 0 0 1024 768;" xml:space="preserve">
<style type="text/css">
	.st0{fill:#0D6EFD;}
	.st1{opacity:0.98;fill:#0D6EFD;}
	.st2{opacity:0.98;}
</style>
<g>
	
		<image style="overflow:visible;opacity:0.75;" width="3352" height="2997" xlink:href="B0999CA4.png"  transform="matrix(0.24 0 0 0.24 116.76 31.32)">
	</image>
	<g>
		<g>
			<g>
				<path class="st0" d="M721.1,93.3c-8.4-31.3-39.8-54.7-72.3-53.8c-2.8,0.1-5.7-0.1-8.5,0.4c-64.6,12.6-129.2,25.4-193.8,38.1
					c-88.6,17.3-177.4,34.1-265.8,52.4c-27.5,5.7-44.9,25-53.1,52c-6.8,22.4,1.1,43.6,5,65.9c1.3-1.2,1.9-1.7,2.3-2.2
					c16.7-25.3,40.2-39.7,70-45.2c40.1-7.4,80-15.6,120.1-23.5c45.3-9,90.6-18,135.9-26.9c0.5,0,1,0,1.5-0.1
					c84.9-16.6,169.8-33.3,254.7-49.8C722.2,99.6,722.2,97.5,721.1,93.3z"/>
			</g>
			<path class="st1" d="M802.5,431.2c-20.3,4-40.5,8.1-60.8,11.9c-34.7,6.6-67-14.9-73.6-48.8c-6.6-33.9,15.2-65.9,49.9-72.8
				c42-8.4,84.1-16.5,126.2-24.9c5.3-1.1,7,0,8.1,5.4c6.8,36,13.9,72,21.2,107.9c1.1,5.5,0.4,7.6-5.6,8.6
				C846.1,422.4,824.3,426.9,802.5,431.2z M782.4,372.1c-4.6-23.3-26.3-37.8-49.6-33.2c-22.8,4.5-37.4,26.4-32.9,49.1
				c4.6,23.4,26.2,37.8,49.6,33.2C772.3,416.7,786.9,394.9,782.4,372.1z"/>
			<g class="st2">
				<path class="st0" d="M298.8,431.3c12.3-2.4,14.3-4.5,15.9-17.1c2.4-19.1,4.9-38.2,7-57.3c0.5-4.6,2.3-6.5,6.9-7.3
					c30.5-5.7,60.8-11.8,91.3-17.7c2.6-0.5,4.9-1.5,7.6,1.3c18.3,19.4,33.9,20.9,55.8,6.1c12.1-13.9,15.6-29.1,6.7-45.9
					c-4.1-7.8-11-12.6-18.7-16.5c-24.6-6.4-40.6,1.9-49.5,26.2c-1.5,4.1-4.4,3.9-7.1,4.4c-33.7,6.7-67.4,13.3-101.1,19.9
					c-11,2.2-13.3,4.6-14.7,15.6c-2.6,19.7-5.2,39.3-7.5,59.1c-0.5,4.4-2.2,6-6.4,6.9c-37.8,7.3-75.5,14.6-113.3,22.3
					c-0.7,0.1-1.3,0.2-1.8,0.3l4.9,25.1c2.4-1.4,6.5-2.2,13.1-3.5C224.8,445.8,261.8,438.6,298.8,431.3z"/>
				<path class="st0" d="M405.1,460.9c5.5-1.1,8.6-0.2,12.3,4.2c11,13.1,29.3,16.3,44.3,8.6c15.2-7.8,23.1-24.1,19.7-40.8
					c-3.4-16.5-17.5-28.6-34.3-29.4c-17-0.9-32.2,9.3-37.2,25.6c-1.4,4.6-3.5,6.4-8.2,7.3c-73.3,14.2-146.5,28.6-219.7,43.2
					c-1,0.2-1.9,0.3-2.7,0.4l4.9,25c2.2-1.2,6-2,11.8-3.1C265.8,488.3,335.5,474.7,405.1,460.9z"/>
				<path class="st0" d="M306.6,530.7c6.4-1.3,9.1,0.4,12,5.8c8.9,16.6,18.4,32.8,27.7,49.2c5.8,10.3,8.6,11.6,20,9.3
					c33.5-6.5,66.9-13.2,100.4-19.6c2.7-0.5,5.4-2.3,8.4,0.9c19.2,19.6,33.2,21.1,55.8,6.6c12.2-13.9,15.9-29.1,6.9-46.1
					c-4.1-7.8-11-12.7-18.8-16.6c-24.8-6.3-40.5,1.9-49.6,26.2c-1.2,3.2-3.1,3.7-5.6,4.1c-30.9,6.1-61.9,12.1-92.7,18.3
					c-4.5,0.9-6.4-0.6-8.4-4.2c-9.6-17.4-19.5-34.6-29.3-51.8c-5.3-9.3-8.5-10.8-18.9-8.8c-40.8,8-81.6,15.9-122.4,24.2
					c-1.3,0.3-2.4,0.4-3.3,0.4l4.8,24.4c0.9-0.4,2.1-0.6,3.4-0.9C233.6,545.3,270.1,538.2,306.6,530.7z"/>
			</g>
			<g>
				<g>
					<path class="st1" d="M871.8,440.6c-15.6,2.8-31.6,6-47,9c-12.3,2.4-24.5,4.9-36.8,7.3c-4.1,0.8-8.2,1.6-12.4,2.4
						c-14.9,57.4-61.4,104.2-123.5,116.4L549.1,596c-0.5,0.5-0.9,1.1-1.4,1.6l-2.1,2.4l-2.7,1.7c-7.1,4.5-16.8,10-28.1,12.2
						c-5,1-10.3,1.3-15.8,0.7c-6.4-0.7-12.2-2.7-17.5-5.4l-145.9,28.7c-17.9,3.5-35.2-8.1-38.8-26l-10.6-54.2
						c-26.6,5.4-54.6,10.8-85.1,16.5c-0.1,0-0.2,0-0.2,0l-3,1.1l18,91.7c8.1,41.2,48,68,89.2,59.9l532.5-104.6
						c41.2-8.1,68-48,59.9-89.2l-18.6-94.7c-2,0.8-4.2,1.4-6.5,1.9C872.4,440.5,872.1,440.6,871.8,440.6z"/>
					<path class="st1" d="M739.8,123.6L207.3,228.2c-41.2,8.1-68,48-59.9,89.2l18.1,91.9l1.9-0.2c27.5-5.6,56-11.2,86.5-17.1
						l-10.6-54.1c-3.5-17.9,8.1-35.2,26-38.8L415,270.5c4.5-5,9.5-9,15.2-12c13.2-6.9,28.9-8.1,46.7-3.5l2.3,0.6l2.1,1.1
						c0.3,0.2,0.7,0.4,1.1,0.5l103.1-20.2c60.3-11.8,119.4,12.1,155.3,57c9.8-1.9,19.5-3.8,29.1-5.7c22.9-4.5,46.6-9.1,69.9-13.8
						c1.3-0.3,3.8-0.8,7-0.8l-17.7-90.2C821,142.4,781,115.6,739.8,123.6z"/>
				</g>
			</g>
		</g>
	</g>
</g>
</svg>
