<?xml version="1.0" encoding="utf-8"?>
<!-- Generator: Adobe Illustrator 25.0.0, SVG Export Plug-In . SVG Version: 6.00 Build 0)  -->
<svg version="1.1" id="Capa_1" xmlns="http://www.w3.org/2000/svg" xmlns:xlink="http://www.w3.org/1999/xlink" x="0px" y="0px"
	 viewBox="0 0 200 200" style="enable-background:new 0 0 200 200;" xml:space="preserve">
<style type="text/css">
	.st0{fill:#FFFFFF;}
</style>
<g>
	<g>
		<path class="st0" d="M115.4,100.8c-1.5-0.9-3.1-1.6-4.7-2.2c-2.3-0.8-4.7-1.5-7.1-2.2c0-5.1,0-10.1,0-15.2
			c4.3,0.5,8.1,2.3,11.8,4.7c1.8-2.6,3.5-5.1,5.3-7.6c-5.3-3.6-10.9-5.6-17.2-6.1c0-1.4,0-2.7,0-4.1c-1.8,0-3.6,0-5.4,0
			c0,1.3,0,2.6,0,3.8c-1.3,0.2-2.4,0.3-3.6,0.5c-8.2,1.4-13.9,7.6-14.2,15.5c-0.2,5.2,1.4,9.6,6,12.5c3.2,2,6.6,3.3,10.2,4.2
			c1.3,0.3,1.7,0.8,1.7,2.2c-0.1,3.7,0,7.4,0,11.1c0,1,0,2.1,0,3.2c-5.7-0.8-10-3.9-14.3-7.2c-2.1,2.5-4.1,4.8-6.1,7.2
			c5.9,5.1,12.5,8.1,20.3,9c0,2.1,0,4,0,6c1.8,0,3.5,0,5.2,0c0-1.5,0.1-2.8,0-4.2c-0.1-1.3,0.4-1.7,1.6-1.8
			c4.4-0.3,8.3-1.8,11.7-4.6C124.4,119.3,124.2,105.9,115.4,100.8z M98.1,94.7c-2.9,0-7-2.8-7.7-5.3c-1-4,2-8,6.5-8.5
			c0.3,0,0.7,0,1.1-0.1C98.1,85.6,98.1,90.1,98.1,94.7z M108.4,120c-1.4,0.7-3.1,1.1-4.8,1.6c0-5.2,0-10.1,0-15.2
			c1.7,0.7,3.3,1.3,4.8,2.1c2.4,1.1,3.6,3.1,3.6,5.8C112.1,116.9,110.7,118.8,108.4,120z"/>
	</g>
	<path class="st0" d="M87.5,55.1L65.4,33c-1.5-1.5-3.9-0.2-3.6,1.8l1.5,11.1c0.2,1.1-0.6,2.2-1.7,2.4l-30.1,6.2
		c-2.3,0.5-2.3,3.7,0,4.2l30.1,6.2c1.1,0.2,1.8,1.3,1.7,2.4l-1.5,11.1c-0.3,2,2.2,3.3,3.6,1.8l22.1-22.1
		C88.3,57.3,88.3,55.9,87.5,55.1z"/>
	<path class="st0" d="M169.9,61.4c-3-4.2-7.3-6.1-12.5-6.1c-12.9,0-25.8,0-38.7,0c-8.2,0-16.5,0-24.7,0c0.1,0.4,0.1,0.8,0.1,1.3
		c0,2.2-0.8,4.2-2.4,5.8L89,65c3.5-1,7.1-1.6,11-1.6c21.2,0,38.5,17.2,38.5,38.5s-17.2,38.5-38.5,38.5s-38.5-17.2-38.5-38.5
		c0-5.4,1.1-10.5,3.1-15.1c-0.2,0-0.5,0-0.7,0c-1.2,0-2.5-0.3-3.6-0.9c-3.1-1.6-4.9-4.9-4.4-8.4l1-7.6l-26.5-5.4
		c-0.7-0.1-1.3-0.3-1.9-0.6c-0.9,2-1.3,4.2-1.3,6.5c0,13.6,0,27.2,0,40.9c0,7.5,0,15,0,22.5c0.1,7.3,5.2,13.3,12.4,14.5
		c1.2,0.2,2.4,0.2,3.5,0.2c38,0,75.9-0.1,113.9,0.1c7.9,0,14.6-4.9,15.8-12.4c0-0.1,0.1-0.1,0.2-0.2c0-22.6,0-45.2,0-67.8
		C171.9,65.8,171.3,63.4,169.9,61.4z"/>
</g>
</svg>
