<?xml version="1.0" encoding="utf-8"?>
<!-- Generator: Adobe Illustrator 25.0.0, SVG Export Plug-In . SVG Version: 6.00 Build 0)  -->
<svg version="1.1" id="Capa_1" xmlns="http://www.w3.org/2000/svg" xmlns:xlink="http://www.w3.org/1999/xlink" x="0px" y="0px"
	 viewBox="0 0 200 200" style="enable-background:new 0 0 200 200;" xml:space="preserve">
<style type="text/css">
	.st0{fill:#64A8F9;}
</style>
<g>
	<g>
		<path class="st0" d="M37.6,34c10.2,1.8,27,6.5,34.6,18.1c1.1,1.6,3.4,1.7,4.5,0.2l3.3-4.5c1.5-2.1,4.9-1.1,4.9,1.5l0.9,42.3
			c0,2-2.1,3.4-3.9,2.5L47.9,78.3c-2.2-1-2.1-4.1,0.2-5l6.1-2.4c1.3-0.5,2.1-2,1.6-3.4c-1.5-4.4-6.1-14.4-20.6-28.9
			C33.3,36.8,34.9,33.6,37.6,34z"/>
	</g>
	<g>
		<path class="st0" d="M105.1,91.2c1.9-10.2,6.6-26.9,18.2-34.5c1.6-1.1,1.7-3.4,0.2-4.5l-4.5-3.3c-2.1-1.5-1-4.9,1.6-4.9l42.3-0.7
			c2,0,3.4,2.1,2.5,3.9l-16,33.9c-1,2.2-4.1,2.1-5-0.2l-2.4-6.1c-0.5-1.3-2-2.1-3.4-1.6c-4.4,1.4-14.5,6.1-29,20.5
			C107.8,95.5,104.6,93.9,105.1,91.2z"/>
	</g>
	<path class="st0" d="M161.3,134.2c-7.9,0-15.8,0.2-23.6-0.1c-7.2-0.2-12.7-6.6-12.6-13.9c0.1-7.1,6-13.1,13.1-13.2
		c7.6-0.1,15.3,0,23.1,0C161.3,116.1,161.3,125.1,161.3,134.2z"/>
	<g>
		<path class="st0" d="M138.8,98c7.5,0,14.9,0,22.6,0c0-3.6,0-6.9,0-10.3c0-4.6-1.7-8.1-4.7-10.2l-2.7,5.7c-1.3,2.8-4.2,4.5-7.3,4.4
			c-3.1-0.1-5.8-2-6.9-4.9l-1.6-4c-4.5,1.9-13.1,6.7-24.9,18.5c-1.5,1.5-3.5,2.3-5.5,2.3c-1.2,0-2.5-0.3-3.6-0.9
			c-3-1.6-4.6-4.9-4-8.2v0c0.9-4.7,2.1-9.9,4-15.1c-4.6,0-9.2,0-13.8,0l0.3,16.3c0.1,2.7-1.3,5.2-3.5,6.6C86,99,84.5,99.5,83,99.5
			c-1.1,0-2.2-0.2-3.3-0.7L45.8,82.9c-2.8-1.3-4.6-4.2-4.5-7.2c0.1-3.1,2-5.8,4.9-7l3.2-1.3c0.2-0.2,0.5-0.4,0.7-0.6
			c-1.1-2.6-3.2-6.5-7.1-11.6c-5.3,3.2-8.7,8.9-8.7,15.7c0,25.6,0,51.1,0,76.7c0,1.4,0.1,2.8,0.5,4.2c1.9,8.5,9.2,14.2,18,14.2
			c32.2,0,64.4,0,96.7,0c0.3,0,0.7,0,1,0c5.2-0.2,10-4,10.6-9.1c0.5-4.4,0.1-8.9,0.1-13.5c-0.4,0-0.9,0-1.4,0
			c-7.2,0-14.5,0.1-21.7,0c-13.9-0.2-24.5-13.6-21.6-27.2C118.8,105.4,127.8,98,138.8,98z"/>
		<path class="st0" d="M90.2,66.2c6,0,12.1,0,18.1,0c2.5-4.5,5.7-8.6,9.7-11.8L116,53c-0.2-0.1-0.3-0.2-0.4-0.4
			c-8.6,0-17.1,0-25.7,0L90.2,66.2z"/>
	</g>
</g>
</svg>
