<?xml version="1.0" encoding="utf-8"?>
<!-- Generator: Adobe Illustrator 25.0.0, SVG Export Plug-In . SVG Version: 6.00 Build 0)  -->
<svg version="1.1" id="Capa_1" xmlns="http://www.w3.org/2000/svg" xmlns:xlink="http://www.w3.org/1999/xlink" x="0px" y="0px"
	 viewBox="0 0 200 200" style="enable-background:new 0 0 200 200;" xml:space="preserve">
<style type="text/css">
	.st0{fill:#64A8F9;}
</style>
<g>
	<g>
		<path class="st0" d="M44,40.8c9.2,1.6,24.2,5.8,31,16.2c1,1.5,3,1.6,4.1,0.2l2.9-4c1.4-1.9,4.4-1,4.4,1.4l0.8,38
			c0,1.8-1.8,3-3.5,2.3L53.3,80.6c-1.9-0.9-1.9-3.7,0.1-4.5l5.5-2.2c1.2-0.5,1.8-1.8,1.4-3c-1.3-3.9-5.5-13-18.5-25.9
			C40.1,43.3,41.6,40.4,44,40.8z"/>
	</g>
	<g>
		<path class="st0" d="M104.6,92.1c1.7-9.2,5.9-24.2,16.3-31c1.5-0.9,1.6-3,0.2-4.1l-4-2.9c-1.9-1.4-0.9-4.4,1.4-4.4l38-0.7
			c1.8,0,3,1.9,2.3,3.5l-14.3,30.4c-0.9,1.9-3.7,1.8-4.5-0.2l-2.1-5.5c-0.5-1.2-1.8-1.8-3-1.4c-3.9,1.3-13,5.4-26,18.4
			C107,96,104.1,94.5,104.6,92.1z"/>
	</g>
	<path class="st0" d="M155,130.7c-7.1,0-14.2,0.2-21.2-0.1c-6.4-0.2-11.4-5.9-11.3-12.4c0.1-6.4,5.4-11.8,11.8-11.9
		c6.9-0.1,13.7,0,20.7,0C155,114.4,155,122.5,155,130.7z"/>
	<g>
		<path class="st0" d="M134.8,98.2c6.7,0,13.4,0,20.3,0c0-3.2,0-6.2,0-9.3c0-4.1-1.5-7.3-4.2-9.2l-2.4,5.1c-1.2,2.5-3.8,4.1-6.5,4
			c-2.8-0.1-5.2-1.8-6.2-4.4l-1.4-3.6c-4,1.7-11.7,6-22.4,16.6c-1.3,1.3-3.1,2-4.9,2c-1.1,0-2.2-0.3-3.2-0.8
			c-2.7-1.4-4.2-4.4-3.6-7.4v0c0.8-4.2,1.9-8.9,3.6-13.5c-4.1,0-8.2,0-12.4,0l0.3,14.6c0.1,2.4-1.1,4.6-3.2,6
			c-1.2,0.8-2.5,1.1-3.8,1.1c-1,0-2-0.2-2.9-0.7L51.4,84.6c-2.5-1.2-4.1-3.7-4-6.5c0.1-2.8,1.8-5.2,4.4-6.2l2.9-1.1
			c0.2-0.2,0.4-0.4,0.6-0.5c-1-2.3-2.9-5.9-6.3-10.4c-4.7,2.9-7.8,8-7.8,14.1c0,22.9,0,45.9,0,68.8c0,1.3,0.1,2.6,0.4,3.8
			c1.7,7.6,8.2,12.7,16.1,12.7c28.9,0,57.8,0,86.7,0c0.3,0,0.6,0,0.9,0c4.7-0.2,9-3.6,9.5-8.2c0.4-4,0.1-8,0.1-12.1
			c-0.4,0-0.8,0-1.3,0c-6.5,0-13,0.1-19.5,0c-12.5-0.2-22-12.2-19.3-24.4C116.8,104.9,125,98.2,134.8,98.2z"/>
		<path class="st0" d="M91.2,69.7c5.4,0,10.8,0,16.2,0c2.3-4,5.1-7.7,8.7-10.6l-1.7-1.3c-0.1-0.1-0.3-0.2-0.4-0.3
			c-7.7,0-15.4,0-23.1,0L91.2,69.7z"/>
	</g>
</g>
</svg>
